# xmcd
# 
# Track frame offsets:
#     150
#     23085
#     45765
#     65317
#     85005
#     108900
#     128617
#     148325
#     167455
#     184815
#     209685
# 
# Disc length: 3109
# 
# Revision: 0
# Processed by: cddbd v1.5.2PL0 Copyright (c) Steve Scherf et al.
# Submitted via: fre:ac v1.0.17
# 
DISCID=8b0c230b
DTITLE=Paul Young - Between Two Fires
DYEAR=1986
DGENRE=Pop
TTITLE0=Some People
TTITLE1=Wonderland
TTITLE2=War Games
TTITLE3=In The Long Run
TTITLE4=Wasting My Time
TTITLE5=Prisoner Of Conscience
TTITLE6=Why Does A Man Have To Be Strong?
TTITLE7=A Certain Passion
TTITLE8=Between Two Fires
TTITLE9=Wedding Day
TTITLE10=Steps To Go
EXTD=
EXTT0=
EXTT1=
EXTT2=
EXTT3=
EXTT4=
EXTT5=
EXTT6=
EXTT7=
EXTT8=
EXTT9=
EXTT10=
PLAYORDER=
